<?xml version="1.0" encoding="UTF-8"?>
<svg id="Calque_2" data-name="Calque 2"
  xmlns="http://www.w3.org/2000/svg" viewBox="0 0 416.724 248.77807" width="416" height="248">
  <path d="m160.59542,112.08292h0c-13.68262,0-24.83738,11.05778-24.83738,24.62115,0,13.62355,11.15475,24.68133,24.83738,24.68133,13.74504,0,24.89979-11.05778,24.89979-24.68133,0-13.56336-11.15475-24.62115-24.89979-24.62115h0Zm0,57.61058h0c-18.30592,0-33.28146-14.78383-33.28146-32.98944s14.97554-32.99055,33.28146-32.99055c18.3661,0,33.34388,14.78495,33.34388,32.99055s-14.97777,32.98944-33.34388,32.98944h0Z" style="fill: #eb602a;"/>
  <path d="m120.78027,75.12222h6.53369c12.4499,0,20.33892-.18279,25.51504-8.92001,3.14313-5.31433,3.69819-12.40197,3.69819-16.37211,0-4.64335-.73785-10.2029-3.32815-14.78495-4.31344-7.63601-11.52479-8.6748-16.76333-9.0415-1.54035-.0613-5.17835-.0613-7.76642-.0613h-7.88902v49.17987h0Zm-4.43827,7.69731h0c-1.17031,0-4.31344-.18279-4.31344-4.27666V22.52169c0-2.68837,1.17031-4.27666,4.31344-4.27666h16.70315c8.44408,0,17.50342.54949,24.40715,7.75861,6.53369,6.84243,7.88902,16.61732,7.88902,23.82645,0,11.36318-3.26573,20.09928-8.38167,25.23082-7.51898,7.45322-18.05848,7.75861-25.9475,7.75861h-14.67015Z" style="fill: #2a2e62;"/>
  <path d="m230.05625,56.67252h0c0,5.43694,0,9.95769-1.9104,15.27314-3.20554,8.79741-13.18998,11.79006-21.94169,11.79006-10.59969,0-17.13338-3.84866-20.2765-7.69731-4.31567-5.00894-4.80831-11.72986-4.80831-18.69379V21.90979c0-1.28289.37004-4.09275,4.43827-4.09275,4.00581,0,4.43827,2.93247,4.43827,4.09275v27.49231c0,10.56848,0,15.57853,2.58806,20.34337.74008,1.2227,4.06823,5.92624,13.375,5.92624,2.34063,0,5.66877-.24409,8.8119-2.01628,6.65629-3.42066,6.71871-9.52969,6.71871-19.24328V21.97109c.1226-1.34419.30762-2.68837,2.15783-3.60456.61525-.3667,1.35533-.54949,2.09542-.54949,2.40304,0,4.31344,1.52698,4.31344,4.15405v34.70144h0Z" style="fill: #2a2e62;"/>
  <path d="m294.27854,64.98063h0c1.04771-2.32168,1.85021-4.09275,4.56088-4.09275,1.35756,0,4.6857.85489,4.6857,3.48196,0,2.56577-2.7753,6.96503-3.32814,7.75861-7.33619,10.87499-19.1686,11.60727-24.40715,11.60727-14.3001,0-20.33892-5.68103-23.42185-9.22429-5.42356-6.47573-7.14894-15.09034-7.14894-23.45975,0-8.98131,2.033-18.02281,7.88902-24.68133,8.13646-8.98131,18.98358-8.98131,22.43433-8.98131,3.63577,0,14.91535,0,22.18913,8.61461,2.28044,2.68837,4.9911,7.69731,4.9911,10.69108,0,2.38298-2.58806,3.72717-4.7459,3.72717-2.28044,0-2.9581-1.34419-4.12842-3.72717-4.50069-9.83618-11.03215-11.60727-18.2435-11.60727-3.32815,0-8.44408.3054-13.375,4.45945-5.97862,5.31545-7.704,13.56225-7.704,21.50477,0,6.17033,1.1079,12.52346,4.7459,17.53351,4.9911,6.71982,11.70981,7.75861,16.51813,7.75861,8.31925,0,15.03796-3.72605,18.48871-11.36318h0Z" style="fill: #2a2e62;"/>
  <path d="m80.90271,151.4879h0c.98752-2.38186,1.85021-4.15405,4.50069-4.15405,1.35533,0,4.68348.85489,4.68348,3.48196,0,2.56577-2.77308,6.96503-3.32815,7.75975-7.33396,10.87386-19.1686,11.60725-24.40715,11.60725-14.3001,0-20.33892-5.68215-23.35944-9.22541-5.48598-6.47573-7.21135-15.08923-7.21135-23.45975,0-8.9802,2.03523-18.0217,7.88902-24.68133,8.13646-9.0415,18.98358-9.0415,22.43433-9.0415,3.638,0,14.91535,0,22.18912,8.6748,2.28044,2.68838,4.9911,7.69843,4.9911,10.69108,0,2.38298-2.58806,3.72717-4.74367,3.72717-2.28044,0-2.89792-1.34419-4.13065-3.72717-4.49846-9.83508-11.03215-11.60727-18.2435-11.60727-3.32815,0-8.44408.3054-13.375,4.52075-5.97862,5.25415-7.704,13.50206-7.704,21.44347,0,6.17033,1.11013,12.52457,4.80831,17.53351,4.93092,6.72094,11.6474,7.75973,16.45571,7.75973,8.32148,0,15.03796-3.72717,18.55112-11.30299h0Z" style="fill: #2a2e62;"/>
  <path d="m242.44596,161.56819h6.53146c12.4499,0,20.34115-.18279,25.51727-8.9189,3.14313-5.31545,3.69819-12.40197,3.69819-16.37323,0-4.64335-.74008-10.2029-3.32815-14.78495-4.31344-7.63601-11.52479-8.6748-16.76556-9.0415-1.60054-.0613-5.17612-.0613-7.76419-.0613h-7.88902v49.17988h0Zm-4.43827,7.69843h0c-1.17031,0-4.31344-.18391-4.31344-4.27666v-56.0223c0-2.68838,1.17031-4.27666,4.31344-4.27666h16.70315c8.44408,0,17.50342.54949,24.40715,7.75861,6.53146,6.84243,7.88902,16.61732,7.88902,23.82645,0,11.36318-3.32815,20.09928-8.3839,25.23194-7.51899,7.51341-18.05848,7.75861-25.9475,7.75861h-14.66792Z" style="fill: #2a2e62;"/>
  <path d="m325.89704,74.75552h50.29223l-25.145-43.19233-25.14723,43.19233h0Zm57.62842,8.36941h-64.89997c-1.54257,0-2.89791-.79358-3.63799-2.13777-.80027-1.28289-.80027-2.87117,0-4.15405l32.421-55.71691c.73785-1.28289,2.1556-2.07758,3.63577-2.07758,1.54035,0,2.89569.7947,3.63577,2.07758l32.48119,55.71691c.74008,1.28289.74008,2.87117,0,4.15405-.74008,1.34419-2.15783,2.13777-3.63577,2.13777h0Z" style="fill: #eb602a;"/>
  <path d="m378.77956,113.42711h-55.47058c-2.34285,0-4.19083-1.89368-4.19083-4.21535s1.84798-4.15405,4.19083-4.15405h55.47058c2.34063,0,4.25102,1.83237,4.25102,4.15405s-1.9104,4.21535-4.25102,4.21535h0Z" style="fill: #2a2e62;"/>
  <path d="m378.77956,140.73551h-55.47058c-2.34285,0-4.19083-1.89368-4.19083-4.15405,0-2.32168,1.84798-4.21535,4.19083-4.21535h55.47058c2.34063,0,4.25102,1.89368,4.25102,4.21535,0,2.26037-1.9104,4.15405-4.25102,4.15405h0Z" style="fill: #2a2e62;"/>
  <path d="m378.77956,168.04392h-55.47058c-2.34285,0-4.19083-1.83238-4.19083-4.15405s1.84798-4.15405,4.19083-4.15405h55.47058c2.34063,0,4.25102,1.83237,4.25102,4.15405s-1.9104,4.15405-4.25102,4.15405h0Z" style="fill: #2a2e62;"/>
  <path d="m88.66912,27.89733h-55.47058c-2.34285,0-4.19083-1.83238-4.19083-4.15405s1.84798-4.15405,4.19083-4.15405h55.47058c2.34285,0,4.25325,1.83237,4.25325,4.15405s-1.9104,4.15405-4.25325,4.15405h0Z" style="fill: #2a2e62;"/>
  <path d="m88.66912,55.26704h-55.47058c-2.34285,0-4.19083-1.89368-4.19083-4.21535,0-2.26037,1.84798-4.15405,4.19083-4.15405h55.47058c2.34285,0,4.25325,1.89368,4.25325,4.15405,0,2.32168-1.9104,4.21535-4.25325,4.21535h0Z" style="fill: #2a2e62;"/>
  <path d="m88.66912,82.57544h-55.47058c-2.34285,0-4.19083-1.83237-4.19083-4.15405s1.84798-4.15405,4.19083-4.15405h55.47058c2.34285,0,4.25325,1.83237,4.25325,4.15405s-1.9104,4.15405-4.25325,4.15405h0Z" style="fill: #2a2e62;"/>
  <path d="m39.29754,216.5517h0c.24744,0,1.04771.0613,1.04771,1.10009,0,.67209-.37004,1.09898-1.04771,1.09898h-4.99333c-.24521,0-1.04771-.12149-1.04771-1.09898,0-1.03879.8025-1.10009,1.04771-1.10009h4.99333Z" style="fill: #eb602a;"/>
  <path d="m56.98598,224.18883h8.99915c.37004,0,1.17031.12149,1.17031,1.16028,0,1.10009-.80027,1.16028-1.17031,1.16028h-10.29206c-.61748,0-1.29515-.12149-1.29515-1.22158v-16.67863c0-.36558.1226-1.22158,1.29515-1.22158,1.17031,0,1.29292.856,1.29292,1.22158v15.57965h0Z" style="fill: #eb602a;"/>
  <path d="m80.1604,218.20129h0c-.1226-1.77219-1.04771-3.72717-3.63577-3.72717-.61748,0-1.72537.0613-2.65048.9173-1.11013.91619-1.35533,2.19907-1.48017,2.80986h7.76642Zm-7.76642,2.01628h0c.06242,1.22158.30985,2.32168,1.04771,3.17656.9251,1.1614,2.03523,1.34419,3.14535,1.34419,2.09542,0,2.89569-1.10009,3.38833-1.89368.43246-.67209.55506-.97749,1.17254-.97749.55283,0,1.35533.3667,1.35533,1.16028v.24409c-.1226.4893-.55506,1.10009-.86269,1.40549-1.85021,2.13889-4.31567,2.13889-5.05352,2.13889-1.78779,0-3.57558-.3667-4.99333-1.89479-1.17031-1.40438-1.78779-3.29805-1.78779-5.25303,0-3.36047,1.85021-7.33173,6.65629-7.33173.61748,0,1.23273.0613,1.78779.18279,1.23273.30651,2.28044.9173,3.08294,2.01628.92288,1.2227,1.35533,2.99377,1.35533,4.52075,0,1.10009-.86269,1.1614-1.17254,1.1614h-9.12175Z" style="fill: #eb602a;"/>
  <path d="m102.96477,218.44538h0c1.41775.428,4.06823,1.1614,4.06823,4.09386,0,1.70977-.86269,2.74856-1.72538,3.29917-.98752.73228-2.46546.97749-3.69819.97749-.80027,0-2.7129-.1226-4.06823-1.28289-1.29292-1.03879-1.54035-2.50558-1.54035-2.87228,0-.91619.9251-1.16028,1.35533-1.16028.61748,0,.8025.3667.9251.61079.37004,1.03879.43023,1.16028.61525,1.40549.61748.97749,1.7276,1.34419,2.89792,1.34419,1.60277,0,2.77308-.856,2.77308-2.07758,0-1.40549-1.23273-1.77219-2.65048-2.19907l-1.54035-.428c-1.48017-.48819-3.82079-1.22158-3.82079-3.78735,0-.7334.30762-4.03256,4.93092-4.03256,4.62106,0,5.36115,3.11526,5.36115,3.60456,0,.85489-.74008,1.10009-1.17031,1.10009-.61748,0-.74008-.3054-1.17254-1.10009-.24521-.4893-.98529-1.71089-3.08071-1.71089-.37004,0-1.11012,0-1.60277.3667-.43023.3054-.80027.85489-.80027,1.40549,0,1.22158,1.1079,1.58828,2.34062,1.95498l1.60277.48819h0Z" style="fill: #eb602a;"/>
  <path d="m114.12175,225.47171h0c0,.24409-.06242.42689-.18502.61079-.06242.24409-.43246.61079-1.04771.61079-.74008,0-1.29515-.4893-1.29515-1.22158v-11.85248c0-.3054.1226-1.16028,1.23273-1.16028,1.17031,0,1.29515.85489,1.29515,1.16028v11.85248h0Zm-1.29515-18.08411h0c.80027,0,1.54035.5506,1.54035,1.52809,0,.91619-.61525,1.46568-1.54035,1.46568-.98529,0-1.48017-.61079-1.48017-1.46568,0-.97749.6799-1.52809,1.48017-1.52809h0Z" style="fill: #eb602a;"/>
  <path d="m125.1539,214.47412h0c-.86269,0-2.09542.24521-2.89792,1.40549-.67767.97749-.92288,2.26037-.92288,3.36047,0,1.16028.24521,2.50447.92288,3.36047.49265.73228,1.48017,1.34307,2.7129,1.34307s2.34063-.67209,2.9581-1.52698c.74008-1.03879.80027-2.74856.80027-3.36047,0-.73228,0-4.58205-3.57335-4.58205h0Zm5.85379,10.2029h0c0,2.93247-.36781,4.39926-1.47794,5.37675-.9251.85489-2.52788,1.34419-4.43827,1.34419-1.54035,0-3.02052-.3667-3.9434-1.03879-.9251-.67209-1.60277-1.83349-1.60277-2.56577,0-.856.74008-1.1614,1.29292-1.1614.8025,0,1.11013.54949,1.29515.97749.24744.4893.37004.7334.55506.91619.61525.67209,1.97281.7947,2.58806.7947,3.20555,0,3.32815-2.07758,3.39057-3.90996v-1.22158c-.61748.67209-1.60277,1.83237-4.06823,1.83237-4.06823,0-5.7936-3.05507-5.7936-6.59833,0-.97749.1226-1.89368.37004-2.80986.80027-2.62707,2.77308-4.27666,5.73119-4.27666.98752,0,1.66519.18279,2.22025.428.98529.42689,1.35533.9162,1.66296,1.40438,0-.85489,0-.97749.1226-1.22158.12483-.18279.37004-.48819.98752-.48819.98529,0,1.1079.73228,1.1079,1.03768v11.18039h0Z" style="fill: #eb602a;"/>
  <path d="m136.37106,213.61923h0c0-.36668.1226-.79358.61525-1.03879.37004-.18279.9251-.18279,1.23273,0,.61748.3054.61748.67211.61748,1.77219,1.1079-1.46679,2.52565-2.01628,4.37585-2.01628,1.41775,0,2.8355.428,3.69819,1.52698.9251,1.1614.98529,2.56577.98529,4.03256v7.57582c0,.3667-.1226,1.22158-1.23273,1.22158-.24521,0-.49265-.0613-.67767-.1226-.49265-.3054-.61525-.73228-.61525-1.09898v-6.35424c0-1.40438-.06242-1.71089-.06242-1.95498,0-.7334-.1226-2.68837-2.65048-2.68837-2.46546,0-3.39056,1.83349-3.63577,3.05507-.18502.67209-.12483,1.40549-.12483,2.13889v5.80364c0,.3667-.1226,1.22158-1.29292,1.22158-.18502,0-.43246-.0613-.61748-.1226-.49265-.3054-.61525-.67209-.61525-1.09898v-11.85248h0Z" style="fill: #eb602a;"/>
  <path d="m162.93381,218.20129h0c-.1226-1.77219-1.1079-3.72717-3.63577-3.72717-.61525,0-1.72537.0613-2.65048.9173-1.1079.91619-1.35533,2.19907-1.47794,2.80986h7.76419Zm-7.76419,2.01628h0c.06019,1.22158.30762,2.32168,1.04771,3.17656.92288,1.1614,2.033,1.34419,3.08071,1.34419,2.15783,0,2.9581-1.10009,3.39056-1.89368.43023-.67209.61525-.97749,1.17031-.97749.61748,0,1.41775.3667,1.41775,1.16028v.24409c-.1226.4893-.55506,1.10009-.86269,1.40549-1.9104,2.13889-4.31344,2.13889-5.11594,2.13889-1.72537,0-3.51317-.3667-4.93092-1.89479-1.17031-1.40438-1.78779-3.29805-1.78779-5.25303,0-3.36047,1.85021-7.33173,6.65852-7.33173.61525,0,1.17031.0613,1.78556.18279,1.23273.30651,2.28044.9173,3.08294,2.01628.9251,1.2227,1.35533,2.99377,1.35533,4.52075,0,1.10009-.86269,1.1614-1.17031,1.1614h-9.12175Z" style="fill: #eb602a;"/>
  <path d="m188.6361,216.1237h0c-.9251-1.46568-2.21802-1.70977-3.26573-1.70977-2.09542,0-3.20554,1.46568-3.57558,3.29917-.1226.67098-.1226,1.28289-.1226,1.89368,0,2.32168.55506,5.13154,3.75837,5.13154.67767,0,1.29515-.1226,1.85021-.3667,2.1556-1.10009,2.1556-4.15405,2.1556-4.76484,0-1.10009-.1226-2.38298-.80027-3.48307h0Zm3.20554,9.40931h0c0,.3054-.12483,1.16028-1.23273,1.16028-.61748,0-.98752-.3667-1.11012-.61079s-.1226-.4893-.06242-1.22158c-.24521.3054-.55283.67209-1.17031,1.03768-.9251.67209-2.033.9173-3.20554.9173-4.25102,0-5.97862-3.54438-5.97862-7.33173,0-3.42066,1.48017-7.14782,5.85602-7.14782,2.89792,0,4.13065,1.58828,4.43827,2.07758v-5.80475c0-.24409.06019-.42689.18502-.61079.1226-.3054.49265-.61079,1.04771-.61079.1226,0,.30763,0,.61525.1226.49265.3054.61748.67209.61748,1.09898v16.92383h0Z" style="fill: #eb602a;"/>
  <path d="m206.8796,218.20129h0c-.1226-1.77219-1.11012-3.72717-3.69819-3.72717-.55506,0-1.66296.0613-2.58806.9173-1.11012.91619-1.35533,2.19907-1.48017,2.80986h7.76642Zm-7.8266,2.01628h0c.06019,1.22158.37004,2.32168,1.1079,3.17656.9251,1.1614,2.03523,1.34419,3.08294,1.34419,2.1556,0,2.89569-1.10009,3.38833-1.89368.43246-.67209.55506-.97749,1.17254-.97749.61525,0,1.41775.3667,1.41775,1.16028v.24409c-.12483.4893-.61748,1.10009-.86269,1.40549-1.91263,2.13889-4.31567,2.13889-5.11594,2.13889-1.72537,0-3.51317-.3667-4.93092-1.89479-1.23273-1.40438-1.78779-3.29805-1.78779-5.25303,0-3.36047,1.85021-7.33173,6.65629-7.33173.61748,0,1.17031.0613,1.78779.18279,1.17031.30651,2.21802.9173,3.08071,2.01628.9251,1.2227,1.35756,2.99377,1.35756,4.52075,0,1.10009-.86269,1.1614-1.23273,1.1614h-9.12175Z" style="fill: #eb602a;"/>
  <path d="m226.17081,225.47171h0c0,.3054-.1226,1.22158-1.29515,1.22158-.67767,0-1.2305-.428-1.2305-1.22158v-16.92272c0-.3054.1226-1.1614,1.2305-1.1614,1.17254,0,1.29515.856,1.29515,1.1614v16.92272h0Z" style="fill: #eb602a;"/>
  <path d="m236.34027,220.15626h0c-.43023.0613-.98529.24409-1.35533.3667-.43246.1226-1.66519.54949-1.66519,2.01628,0,1.46568,1.17254,2.26037,2.52787,2.26037,1.54035,0,2.58806-.91619,3.02052-1.46679.67767-.91619.67767-2.19907.74008-4.03145-.55506.24409-.74008.3054-1.85021.54949l-1.41775.3054h0Zm5.5484,5.43694h0c0,.3054-.06242,1.10009-1.04771,1.10009-.49488-.0613-.86492-.18391-1.04994-.61079-.06019-.18391-.1226-.3054-.1226-1.28289-1.29292,1.70977-3.14312,2.01628-4.37585,2.01628-2.77308,0-4.56087-1.71089-4.56087-4.27666,0-3.23786,2.7129-3.72717,4.13065-4.03256l2.34063-.48819c.9251-.18391,1.41775-.3054,1.66519-.3667.55506-.18391.74008-.3667.74008-1.03879,0-2.26037-2.34285-2.26037-2.8355-2.26037-2.34285,0-2.77531,1.09898-3.02052,1.83237-.06242.3667-.18502.856-1.11012.856-1.04771,0-1.29292-.5506-1.29292-1.03879,0-.5506.36781-1.22158.55283-1.52809,1.11012-1.64847,3.02052-2.13777,4.87073-2.13777,1.60276,0,3.20331.3054,4.19083,1.46679.9251,1.03768.9251,2.44317.9251,3.72605v8.06401h0Z" style="fill: #eb602a;"/>
  <path d="m259.26725,214.96342h0c.49488-1.52698,2.03523-2.50447,3.638-2.50447.30762,0,1.47794,0,1.47794,1.2216,0,.91617-.73785,1.10008-1.1079,1.10008-.67767.12149-1.41775.24409-2.09542.67098-1.78779,1.284-1.78779,3.11637-1.78779,4.76596v5.31545c0,.42689-.12483,1.16028-1.29515,1.16028-1.11012,0-1.17031-.7334-1.17031-1.16028v-11.97508c0-.30538.06019-1.09898,1.17031-1.09898,1.04771,0,1.17031.7936,1.17031,1.09898v1.40549h0Z" style="fill: #eb602a;"/>
  <path d="m274.55265,210.50397h0c-.1226.18279-.30763.42689-.73785.42689-.61748,0-.98752-.42689-.98752-.85489,0-.0613.06242-.24409.06242-.3054l.80027-2.38298c.18502-.3054.37004-.79358,1.17254-.79358.73785,0,1.35533.54949,1.35533,1.16028,0,.24409-.1226.4893-.24744.67209l-1.41775,2.07758h0Zm3.26796,7.69731h0c-.12483-1.77219-1.11012-3.72717-3.69819-3.72717-.55506,0-1.66519.0613-2.58806.9173-1.11013.91619-1.35756,2.19907-1.48017,2.80986h7.76642Zm-7.82883,2.01628h0c.06242,1.22158.37004,2.32168,1.11013,3.17656.9251,1.1614,2.033,1.34419,3.08071,1.34419,2.15783,0,2.89792-1.10009,3.39056-1.89368.43246-.67209.61748-.97749,1.17031-.97749.61748,0,1.41775.3667,1.41775,1.16028v.24409c-.1226.4893-.61525,1.10009-.86269,1.40549-1.9104,2.13889-4.31344,2.13889-5.11594,2.13889-1.72537,0-3.51094-.3667-4.92869-1.89479-1.23273-1.40438-1.78779-3.29805-1.78779-5.25303,0-3.36047,1.84798-7.33173,6.65629-7.33173.61525,0,1.17031.0613,1.78779.18279,1.17031.30651,2.28044.9173,3.08071,2.01628.9251,1.2227,1.35533,2.99377,1.35533,4.52075,0,1.10009-.86269,1.1614-1.23273,1.1614h-9.12175Z" style="fill: #eb602a;"/>
  <path d="m296.55675,225.53301h0c-.06242.36558-.06242.73228-.61748,1.03768-.36781.1226-.86269.1226-1.23273,0-.55283-.3054-.55283-.73228-.55283-1.83238-1.17254,1.52698-2.34285,2.07758-4.31567,2.07758-.67767,0-2.40304-.0613-3.63577-1.40549-1.17031-1.28289-1.17031-2.99377-1.17031-4.27666v-7.4532c0-.36671.1226-1.2216,1.23273-1.2216,1.17031,0,1.29292.85489,1.29292,1.16028v6.71982c0,1.83349.06242,2.56689.43246,3.17768.61525,1.16028,1.9104,1.16028,2.21802,1.16028,1.78779,0,3.26796-1.03879,3.69819-2.87117.1226-.67209.1226-1.22158.1226-2.26038v-5.86492c0-.36671.12483-1.2216,1.23273-1.2216,1.17254,0,1.29515.85489,1.29515,1.2216v11.85246h0Z" style="fill: #eb602a;"/>
  <path d="m307.89652,218.44538h0c1.48017.428,4.13065,1.1614,4.13065,4.09386,0,1.70977-.9251,2.74856-1.72537,3.29917-1.04771.73228-2.46546.97749-3.69819.97749-.8025,0-2.7129-.1226-4.13065-1.28289-1.23273-1.03879-1.47794-2.50558-1.47794-2.87228,0-.91619.92288-1.16028,1.35533-1.16028.61525,0,.74008.3667.86269.61079.43245,1.03879.43245,1.16028.61748,1.40549.61525.97749,1.78556,1.34419,2.89569,1.34419,1.60277,0,2.8355-.856,2.8355-2.07758,0-1.40549-1.29515-1.77219-2.65048-2.19907l-1.60277-.428c-1.47794-.48819-3.75838-1.22158-3.75838-3.78735,0-.7334.24521-4.03256,4.92869-4.03256,4.56087,0,5.30096,3.11526,5.30096,3.60456,0,.85489-.74008,1.10009-1.1079,1.10009-.61748,0-.8025-.3054-1.17254-1.10009-.24521-.4893-.98529-1.71089-3.14312-1.71089-.30763,0-1.04771,0-1.54035.3667-.49265.3054-.8025.85489-.8025,1.40549,0,1.22158,1.04994,1.58828,2.34285,1.95498l1.54035.48819h0Z" style="fill: #eb602a;"/>
  <path d="m322.56667,218.44538h0c1.47794.428,4.06823,1.1614,4.06823,4.09386,0,1.70977-.86269,2.74856-1.7276,3.29917-.98529.73228-2.46546.97749-3.69819.97749-.80027,0-2.71067-.1226-4.066-1.28289-1.23273-1.03879-1.48017-2.50558-1.48017-2.87228,0-.91619.9251-1.16028,1.29515-1.16028.61525,0,.80027.3667.92288.61079.37004,1.03879.43246,1.16028.61748,1.40549.61525.97749,1.72537,1.34419,2.89569,1.34419,1.60277,0,2.77531-.856,2.77531-2.07758,0-1.40549-1.23273-1.77219-2.65048-2.19907l-1.54035-.428c-1.48017-.48819-3.82302-1.22158-3.82302-3.78735,0-.7334.30985-4.03256,4.93092-4.03256,4.62329,0,5.36338,3.11526,5.36338,3.60456,0,.85489-.74008,1.10009-1.17254,1.10009-.55506,0-.73785-.3054-1.17031-1.10009-.24744-.4893-.98529-1.71089-3.08071-1.71089-.37004,0-1.04771,0-1.60277.3667-.43246.3054-.8025.85489-.8025,1.40549,0,1.22158,1.11012,1.58828,2.34285,1.95498l1.60277.48819h0Z" style="fill: #eb602a;"/>
  <path d="m333.72142,225.47171h0c0,.24409-.06019.42689-.18502.61079-.06019.24409-.43023.61079-1.04771.61079-.74008,0-1.23273-.4893-1.23273-1.22158v-11.85248c0-.3054.06242-1.16028,1.17253-1.16028,1.17032,0,1.29293.85489,1.29293,1.16028v11.85248h0Zm-1.29293-18.08411h0c.80028,0,1.54036.5506,1.54036,1.52809,0,.91619-.61748,1.46568-1.54036,1.46568-.92509,0-1.48016-.61079-1.48016-1.46568,0-.97749.67767-1.52809,1.48016-1.52809h0Z" style="fill: #eb602a;"/>
  <path d="m339.26981,214.71933h-1.41775c-.30985,0-1.04771-.1226-1.04771-1.03878,0-.97751.73785-1.10011,1.04771-1.10011h1.47794v-3.11526c0-.3667.06242-1.1614,1.17254-1.1614,1.17031,0,1.29292.7947,1.29292,1.1614v3.11526h1.66519c.30762,0,1.04771.1226,1.04771,1.10011,0,.91617-.74008,1.03878-1.04771,1.03878h-1.66519v6.78113c0,1.64958,0,1.83237.06242,2.13777.24521.7947.74008.9173,1.47794.97749.61748,0,1.29515.0613,1.29515,1.03879,0,.91619-.86269,1.03879-1.60277,1.03879-3.75838,0-3.75838-2.01628-3.75838-4.09275v-7.88122h0Z" style="fill: #eb602a;"/>
  <path d="m358.31358,218.20129h0c-.1226-1.77219-1.04771-3.72717-3.63577-3.72717-.61748,0-1.72538.0613-2.65048.9173-1.11012.91619-1.35533,2.19907-1.48017,2.80986h7.76642Zm-7.76642,2.01628h0c.06242,1.22158.30985,2.32168,1.04771,3.17656.9251,1.1614,2.03523,1.34419,3.14312,1.34419,2.09542,0,2.89792-1.10009,3.39056-1.89368.43246-.67209.55506-.97749,1.17031-.97749.55506,0,1.35756.3667,1.35756,1.16028v.24409c-.12483.4893-.55506,1.10009-.86269,1.40549-1.85021,2.13889-4.31567,2.13889-5.05575,2.13889-1.78556,0-3.57335-.3667-4.92869-1.89479-1.23273-1.40438-1.85021-3.29805-1.85021-5.25303,0-3.36047,1.85021-7.33173,6.65629-7.33173.61748,0,1.23273.0613,1.78779.18279,1.23273.30651,2.28044.9173,3.08071,2.01628.9251,1.2227,1.41775,2.99377,1.41775,4.52075,0,1.10009-.92288,1.1614-1.23273,1.1614h-9.12175Z" style="fill: #eb602a;"/>
  <path d="m379.94765,216.5517h0c.30763,0,1.1079.0613,1.1079,1.10009,0,.67209-.43023,1.09898-1.1079,1.09898h-4.93092c-.30763,0-1.04771-.12149-1.04771-1.09898,0-1.03879.74008-1.10009,1.04771-1.10009h4.93092Z" style="fill: #eb602a;"/>
</svg>